<svg t="1743057534055" class="icon" viewBox="0 0 1024 1024" version="1.1" xmlns="http://www.w3.org/2000/svg" p-id="6324" width="200" height="200"><path d="M828.6 195.4C744.1 110.8 631.6 64.2 512 64.2s-232.1 46.6-316.6 131.2C110.8 279.9 64.2 392.4 64.2 512s46.6 232.1 131.2 316.6c84.6 84.6 197 131.2 316.6 131.2s232.1-46.6 316.6-131.2c84.6-84.6 131.2-197 131.2-316.6s-46.6-232.1-131.2-316.6zM512 928.6C282.3 928.6 95.4 741.7 95.4 512S282.3 95.4 512 95.4 928.6 282.3 928.6 512 741.7 928.6 512 928.6z" fill="#2A8CBD" p-id="6325"></path><path d="M688.6 349H525.7v70.9c3.6-12.2 9-23.2 16.8-32.7 0.8-0.8 11-9.4 30.2-0.9l1 0.7c4.1 4 100.2 98.2 56.6 173.2-10.1 15.3-25.3 19.7-39.4 19.7-19.4 0-37.1-8.4-37.4-8.5-1.4-0.8-29.2-16.8-32.6-59.8-0.4-4.5-0.7-9.1-0.9-13.6l-8.5-5.1-7.4 4.4c-0.3 4.7-0.6 9.5-1 14.3-3.4 43-31.3 59.1-32.4 59.7-0.4 0.2-18.1 8.6-37.6 8.6h255.6V349z" fill="#2C84B1" p-id="6326"></path><path d="M393.7 560.3c-43.8-75.2 52.4-169.4 56.5-173.4l1-0.7c19.3-8.4 29.4 0.2 29.9 0.5 8 9.7 13.5 21 17.2 33.4V349H335.4v230.8H433c-14.2 0-29.2-4.4-39.3-19.5zM519.5 489.9c-0.2-5.5-0.4-10.9-0.4-16.3h-0.1V349h-14.3v124.6h-0.1c0 5.2-0.1 10.4-0.3 15.7l7-4.2 8.2 4.8z" fill="#2C84B1" p-id="6327"></path><path d="M432.7 518.5c-0.4 1.9 0 3.9 1.2 5.4 2.1 3 6.3 3.9 9.4 2l54.4-32.6c0.3-5 0.4-9.9 0.5-14.8L481.6 491l-16.7-27.9c-2.9-5.2-2.4-13.8-1.2-21.1l-11.1 12.4-4.7-2.2 25.5 40.8-18.7 11.1-22.1-2.4 10.1 7.8-6.9 4.4c-1.6 1-2.7 2.7-3.1 4.6zM556.6 565.4c0.3 0.1 47.4 22.4 68.2-8.8 39.6-68-48.3-157.7-55.2-164.6-5.2-2.2-9.5-2.9-12.8-2.9-6.2 0-9.3 2.5-9.5 2.6-16.2 19.8-21.1 48-21.4 78.5l14.2 10.3 15.2-27.3L547 412l21.4 36.4 23.5-10.9-32.3 54.3 19.7 10.3 39.8-15.8-25.2 26 1.9 1.9c4.2 4.2 4.9 10.8 1.7 15.7-2.4 3.8-6.4 5.8-10.6 5.8-2.2 0-4.4-0.6-6.5-1.8L526.9 502c0.2 3 0.4 6 0.7 9 3 39.3 27.9 53.8 29 54.4z" fill="#2C84B1" p-id="6328"></path><path d="M476.3 391.3c-0.1 0-7.3-5.5-22 0.7-6.9 6.9-94.7 96.6-55.1 164.8 20.7 31.1 67.8 8.8 68.2 8.6 0.9-0.5 25.8-15.1 28.9-54.4 0.3-3.2 0.5-6.4 0.7-9.6l-50.5 30.3c-6.1 3.7-14.1 2-18.2-3.8-2.2-3.1-3-6.8-2.2-10.5 0.7-3.3 2.4-6.2 5.1-8.2L410 492.6l43.2 4.7 11-6.5-33.9-54.3 20.6 9.9 26.7-30-4.6 14.7c-2.6 8.2-5.5 23.2-2.5 28.7l12.9 21.5 14.6-11c-0.1-30.6-5.1-58.9-21.7-79zM525.8 478.4c0.1 5.2 0.3 10.4 0.5 15.6l57.3 34.2c2.8 1.7 6.4 0.8 8.1-1.9 1.5-2.4 1.2-5.5-0.8-7.5l-6.5-6.5 8.3-8.6-14.1 5.6-28.6-14.9 24.9-41.9-9.5 4.4-4.4-7.6 1 5-20 35.9-16.2-11.8z" fill="#2C84B1" p-id="6329"></path><path d="M252.1 286.6v355.6h519.8V286.6H252.1z m501.3 337.1H270.6V305.1h482.8v318.6zM742 716.7H523.1v-74.5h-22.3v74.5H282c-6.4 0-11.6 4.6-11.6 10.4s5.2 10.4 11.6 10.4h460c6.4 0 11.6-4.6 11.6-10.4s-5.2-10.4-11.6-10.4z" fill="#2C84B1" p-id="6330"></path></svg>